PathFileType	4	(X/Y/Z)	/Users/itak/Documents/Research/Walk-IL/dataset/trc/00154_00007.trc
DataRate	CameraRate	NumFrames	NumMarkers	Units	OrigDataRate	OrigDataStartFrame	OrigNumFrames
100.000000	100.000000	4	53	mm	100.000000	252	504
Frame#	Time	RPSI			LPSI			L3			STRN			T10			C7			CLAV			RBAK			LBAK			LSHO			LUPA			LAEL			LAOL			LWTS			LWPS			LFRA			LIFD			LHPS			LHTS			RSHO			RUPA			RAEL			RAOL			RWTS			RWPS			RFRA			RIFD			RHTS			RHPS			RBHD			LFHD			RFHD			LBHD			LHIP			RHIP			RASI			LASI			LKNE			LTHI			LANK			LTIP			LTOE			LMT1			LMT5			LHEE			RKNE			RTHI			RANK			RTIP			RTOE			RMT1			RMT5			RHEE			
		X1	Y1	Z1	X2	Y2	Z2	X3	Y3	Z3	X4	Y4	Z4	X5	Y5	Z5	X6	Y6	Z6	X7	Y7	Z7	X8	Y8	Z8	X9	Y9	Z9	X10	Y10	Z10	X11	Y11	Z11	X12	Y12	Z12	X13	Y13	Z13	X14	Y14	Z14	X15	Y15	Z15	X16	Y16	Z16	X17	Y17	Z17	X18	Y18	Z18	X19	Y19	Z19	X20	Y20	Z20	X21	Y21	Z21	X22	Y22	Z22	X23	Y23	Z23	X24	Y24	Z24	X25	Y25	Z25	X26	Y26	Z26	X27	Y27	Z27	X28	Y28	Z28	X29	Y29	Z29	X30	Y30	Z30	X31	Y31	Z31	X32	Y32	Z32	X33	Y33	Z33	X34	Y34	Z34	X35	Y35	Z35	X36	Y36	Z36	X37	Y37	Z37	X38	Y38	Z38	X39	Y39	Z39	X40	Y40	Z40	X41	Y41	Z41	X42	Y42	Z42	X43	Y43	Z43	X44	Y44	Z44	X45	Y45	Z45	X46	Y46	Z46	X47	Y47	Z47	X48	Y48	Z48	X49	Y49	Z49	X50	Y50	Z50	X51	Y51	Z51	X52	Y52	Z52	X53	Y53	Z53	

253	2.52	-214.6843719482422	1112.8037109375	-464.2500610351562	-129.2467498779297	1127.296997070312	-568.8751831054688	-175.9013366699219	1159.940673828125	-523.1449584960938	-1.090456485748291	1355.352905273438	-380.2814025878906	-198.3522033691406	1315.182739257812	-539.2660522460938	-152.0417175292969	1605.86572265625	-518.925537109375	-21.27725410461426	1492.040771484375	-401.3507385253906	-253.5196838378906	1423.8662109375	-489.8959655761719	-94.36515045166016	1586.384033203125	-602.3656005859375	15.34709548950195	1570.380004882812	-601.82373046875	43.59801864624023	1443.3173828125	-676.6384887695312	74.19993591308594	1227.1806640625	-700.37158203125	-14.01001262664795	1213.751953125	-703.1972045898438	121.3956451416016	961.7933959960938	-625.1029052734375	77.45515441894531	941.3653564453125	-700.4115600585938	89.94824981689453	1110.100830078125	-702.9148559570312	113.8097610473633	765.0504150390625	-617.5084228515625	99.12905883789062	865.0907592773438	-688.8816528320312	138.7056121826172	873.0450439453125	-631.6281127929688	-221.5942230224609	1584.606323242188	-342.7616577148438	-278.6317749023438	1513.639282226562	-307.4952697753906	-321.9772338867188	1222.77734375	-309.779296875	-261.3218383789062	1220.172119140625	-386.3133850097656	-218.9165496826172	970.8473510742188	-232.3056030273438	-295.9006958007812	959.398681640625	-257.7632141113281	-318.2486572265625	1148.522705078125	-284.4300231933594	-197.2756042480469	775.8719482421875	-234.7884368896484	-206.0245361328125	862.0582885742188	-212.1841583251953	-273.6515197753906	856.9541625976562	-234.0682983398438	-161.7229614257812	1773.366333007812	-427.474365234375	48.03811645507812	1832.939208984375	-396.3036193847656	-46.91806030273438	1826.484741210938	-304.9502868652344	-70.78897857666016	1783.249877929688	-527.5159301757812	13.61129188537598	1046.899047851562	-602.3228149414062	-178.5561370849609	1014.08935546875	-293.6076965332031	-88.9947509765625	1094.091430664062	-287.6592712402344	70.12856292724609	1105.950927734375	-499.6757507324219	65.09467315673828	546.338623046875	-542.3059692382812	49.64192962646484	690.8512573242188	-585.2634887695312	-7.685236930847168	32.87242126464844	-600.8908081054688	15.77468681335449	292.3680419921875	-620.29833984375	124.0242614746094	38.44819259643555	-400.4535827636719	43.33276748657227	45.30365753173828	-433.3956604003906	103.8137893676758	33.18979644775391	-538.3386840820312	-101.3082427978516	35.85373306274414	-601.4149169921875	-12.5615119934082	546.7153930664062	-261.8057556152344	-101.256217956543	814.1718139648438	-266.9232177734375	-290.1933288574219	143.7103118896484	-467.6800537109375	-84.02198028564453	431.5516357421875	-300.8074340820312	-100.5629119873047	62.92333602905273	-374.7107543945312	-116.7173233032227	66.43447875976562	-444.9599609375	-214.9837951660156	85.29509735107422	-375.8238830566406	-296.8178405761719	171.2541046142578	-536.6383666992188	
254	2.53	-207.9850311279297	1112.959716796875	-461.8450012207031	-121.9580307006836	1127.4140625	-565.8665161132812	-168.8537139892578	1160.121215820312	-520.6542358398438	5.188769817352295	1355.343383789062	-376.3890991210938	-190.7983856201172	1315.428833007812	-537.2028198242188	-144.2820281982422	1606.048217773438	-516.097900390625	-14.73594570159912	1492.080932617188	-397.3899841308594	-246.1370544433594	1424.071533203125	-488.3174743652344	-85.8648681640625	1586.633178710938	-599.0131225585938	23.88500213623047	1570.66943359375	-597.3118896484375	53.41269683837891	1443.762817382812	-671.7865600585938	85.74208068847656	1227.774536132812	-694.7587280273438	-2.443655967712402	1213.818725585938	-698.9633178710938	133.0799865722656	962.7678833007812	-618.0640258789062	90.69599151611328	941.9490966796875	-694.1072387695312	102.1736145019531	1110.793701171875	-696.8359375	126.7803726196289	766.041748046875	-610.258544921875	112.6921920776367	865.855224609375	-682.0784301757812	151.0982818603516	874.1677856445312	-624.12109375	-215.5210723876953	1584.5712890625	-340.6397705078125	-272.927734375	1513.578491210938	-306.0936584472656	-316.5641174316406	1222.770751953125	-309.3006896972656	-255.2287750244141	1220.287963867188	-385.3087158203125	-213.7669067382812	970.9050903320312	-231.2249145507812	-290.8203125	959.3007202148438	-257.3111877441406	-313.0453796386719	1148.485473632812	-284.0121459960938	-192.1155395507812	775.8797607421875	-233.792724609375	-201.1433410644531	861.9939575195312	-211.2250518798828	-268.5258178710938	856.8004760742188	-233.4478759765625	-154.7922668457031	1773.34423828125	-424.146728515625	54.73223876953125	1832.90478515625	-391.2820129394531	-40.83560943603516	1826.237670898438	-300.6383361816406	-62.89337539672852	1783.619995117188	-523.63818359375	21.1129322052002	1046.727905273438	-598.5338134765625	-172.9304962158203	1014.595764160156	-290.7319030761719	-83.37887573242188	1094.427856445312	-284.5882263183594	77.20317077636719	1105.745849609375	-495.5285339355469	67.52370452880859	545.69580078125	-541.8070068359375	53.56625366210938	690.508056640625	-583.6143798828125	-7.768820285797119	32.9361686706543	-600.8175048828125	16.6823673248291	292.2802429199219	-620.2594604492188	124.2438583374023	38.50046539306641	-400.624267578125	43.39546966552734	45.40073776245117	-433.365234375	103.7896347045898	33.17596054077148	-538.3609619140625	-101.3652114868164	35.94062042236328	-601.31494140625	-2.346666574478149	549.4546508789062	-254.7320404052734	-94.53530120849609	815.7394409179688	-261.9020080566406	-266.7677917480469	136.6799011230469	-458.6438903808594	-70.72861480712891	432.2305908203125	-293.2613830566406	-76.33199310302734	63.44194412231445	-361.33056640625	-91.54336547851562	65.30080413818359	-431.8688659667969	-191.3123474121094	82.64088439941406	-364.4896545410156	-273.2341918945312	162.5408935546875	-528.11474609375	
255	2.54	-201.3055267333984	1112.994262695312	-459.3814697265625	-114.890251159668	1127.455810546875	-562.845703125	-161.9713439941406	1160.184692382812	-518.1155395507812	11.38195991516113	1355.203369140625	-372.435546875	-183.2859191894531	1315.527954101562	-535.028564453125	-136.6260986328125	1606.098999023438	-513.21630859375	-8.297660827636719	1491.98095703125	-393.3815612792969	-238.9031066894531	1424.14111328125	-486.67041015625	-77.45874786376953	1586.72998046875	-595.5990600585938	32.3046875	1570.79345703125	-592.7410278320312	63.09904098510742	1444.04443359375	-666.8636474609375	97.10027313232422	1228.196899414062	-689.0570678710938	8.962973594665527	1213.654541015625	-694.556884765625	144.7199401855469	963.64208984375	-610.8866577148438	103.8603134155273	942.396484375	-687.5787963867188	114.2625732421875	1111.366577148438	-690.6449584960938	139.8377990722656	767.0595092773438	-602.7512817382812	126.2169647216797	866.5001831054688	-675.0281982421875	163.4972229003906	875.2280883789062	-616.427978515625	-209.5353698730469	1584.422485351562	-338.4724731445312	-267.2909851074219	1513.381469726562	-304.6477355957031	-311.0646667480469	1222.610717773438	-308.7339172363281	-249.0398406982422	1220.252685546875	-384.189453125	-208.6036071777344	970.7835693359375	-230.0529327392578	-285.7136535644531	959.0751953125	-256.7885437011719	-307.7732543945312	1148.298828125	-283.5154724121094	-187.032958984375	775.7022094726562	-232.6837615966797	-196.3152313232422	861.7440795898438	-210.1297149658203	-263.4949951171875	856.5234375	-232.7318420410156	-147.9191436767578	1773.19970703125	-420.7728271484375	61.34515380859375	1832.72314453125	-386.2382202148438	-34.79560852050781	1825.885620117188	-296.29296875	-55.12661361694336	1783.8525390625	-519.6991577148438	28.58341217041016	1046.463134765625	-594.7180786132812	-167.3256225585938	1014.951110839844	-287.8133850097656	-77.79917144775391	1094.592041015625	-281.4322509765625	84.19686126708984	1105.437377929688	-491.3223571777344	69.96242523193359	545.0315551757812	-541.2575073242188	57.50553131103516	690.0996704101562	-581.9200439453125	-7.846250534057617	32.994384765625	-600.7518920898438	17.59123039245605	292.2001037597656	-620.2026977539062	124.4352340698242	38.54056549072266	-400.7739868164062	43.45178604125977	45.50069808959961	-433.338623046875	103.7594299316406	33.15956878662109	-538.3892211914062	-101.3773956298828	36.01591110229492	-601.2219848632812	7.437314033508301	551.9757080078125	-247.7244873046875	-88.03327178955078	817.122314453125	-256.8974914550781	-243.1339111328125	129.4130096435547	-449.1500549316406	-57.74066543579102	432.6932373046875	-285.6677856445312	-52.09696197509766	63.99517822265625	-347.6129455566406	-66.259033203125	64.25778198242188	-418.4273071289062	-167.5487518310547	79.82664489746094	-352.788818359375	-249.3261566162109	153.5704803466797	-519.1006469726562	
256	2.55	-194.6543731689453	1112.921875	-456.8526000976562	-107.989143371582	1127.425903320312	-559.7882080078125	-155.2522888183594	1160.135131835938	-515.5231323242188	17.49677085876465	1354.943115234375	-368.4194946289062	-175.81201171875	1315.49072265625	-532.7291259765625	-129.0748596191406	1606.02734375	-510.2704467773438	-1.956584572792053	1491.751586914062	-389.3217468261719	-231.8404235839844	1424.084594726562	-484.9494323730469	-69.14699554443359	1586.686767578125	-592.1190185546875	40.60123443603516	1570.759033203125	-588.1126098632812	72.64212799072266	1444.1669921875	-661.8681640625	108.2689666748047	1228.455688476562	-683.2662353515625	20.21175956726074	1213.273803710938	-689.985107421875	156.3147888183594	964.4254150390625	-603.5838012695312	116.9283752441406	942.7116088867188	-680.8363037109375	126.2081451416016	1111.82080078125	-684.3402709960938	152.9433898925781	768.12109375	-594.9940795898438	139.6693115234375	867.02587890625	-667.7349243164062	175.8834228515625	876.2173461914062	-608.5579833984375	-203.6296997070312	1584.16650390625	-336.2470397949219	-261.7220764160156	1513.059692382812	-303.1422119140625	-305.4800415039062	1222.305053710938	-308.0795593261719	-242.7451477050781	1220.0751953125	-382.9512634277344	-203.4679107666016	970.4808349609375	-228.7765960693359	-280.5845031738281	958.7208862304688	-256.2110595703125	-302.44091796875	1147.966552734375	-282.9443969726562	-182.0325927734375	775.3453979492188	-231.4525146484375	-191.5540771484375	861.31640625	-208.87841796875	-258.5686645507812	856.124267578125	-231.9629821777344	-141.096435546875	1772.947387695312	-417.3529663085938	67.89028930664062	1832.401611328125	-381.1744384765625	-28.78127288818359	1825.446166992188	-291.9109497070312	-47.53099822998047	1783.930786132812	-515.6654052734375	35.97996139526367	1046.108032226562	-590.8909301757812	-161.7450561523438	1015.160766601562	-284.8631591796875	-72.23771667480469	1094.594116210938	-278.187744140625	91.11544799804688	1105.030151367188	-487.0660095214844	72.43171691894531	544.343994140625	-540.6376953125	61.46522521972656	689.6521606445312	-580.1652221679688	-7.913094520568848	33.04575347900391	-600.6983032226562	18.52960586547852	292.1317138671875	-620.09912109375	124.5978164672852	38.57414627075195	-400.901123046875	43.49772644042969	45.5949592590332	-433.3164367675781	103.7230224609375	33.1408805847168	-538.42431640625	-101.3493423461914	36.08327102661133	-601.1421508789062	16.7896614074707	554.2722778320312	-240.7934112548828	-81.75570678710938	818.3214111328125	-251.9225921630859	-219.3342895507812	122.0031814575195	-439.1974182128906	-45.08876037597656	432.9564819335938	-278.041748046875	-27.93342781066895	64.64972686767578	-333.5335998535156	-40.92294692993164	63.37457656860352	-404.6105346679688	-143.7563629150391	76.9503173828125	-340.7107849121094	-225.1578979492188	144.4473419189453	-509.6111145019531	
